<svg xmlns="http://www.w3.org/2000/svg" viewBox="0 0 100 100">
  <defs>
    <linearGradient id="bg" x1="0%" y1="0%" x2="100%" y2="100%">
      <stop offset="0%" style="stop-color:#0ea5e9"/>
      <stop offset="100%" style="stop-color:#2563eb"/>
    </linearGradient>
  </defs>
  <rect width="100" height="100" rx="22" fill="url(#bg)"/>
  <path d="M35 30 C35 24 65 24 65 30 L65 32 C73 35 78 43 78 52 C78 66 65 76 50 76 C35 76 22 66 22 52 C22 43 27 35 35 32 Z" fill="none" stroke="white" stroke-width="3" opacity="0.3"/>
  <path d="M38 52 C38 52 39 48 40.5 47 C42 46 43 50 43 50 C43 50 44.5 42 46 41 C47.5 40 48.5 46 48.5 46 C48.5 46 50 38 51.5 38 C53 38 54 45 54 45 C54 45 55.5 41 57 42 C58.5 43 59 49 59 49 C59 49 60.5 46 62 47.5 C63.5 49 63 55 63 55 C63 58 61 61 58 61 L42 61 C39 61 37 58 38 52 Z" fill="white"/>
</svg>